<svg id="visual" viewBox="0 0 900 600" width="900" height="600" xmlns="http://www.w3.org/2000/svg" xmlns:xlink="http://www.w3.org/1999/xlink" version="1.1"><rect x="0" y="0" width="900" height="600" fill="#001220"></rect><defs><linearGradient id="grad1_0" x1="33.3%" y1="0%" x2="100%" y2="100%"><stop offset="20%" stop-color="#001220" stop-opacity="1"></stop><stop offset="80%" stop-color="#001220" stop-opacity="1"></stop></linearGradient></defs><defs><linearGradient id="grad2_0" x1="0%" y1="0%" x2="66.7%" y2="100%"><stop offset="20%" stop-color="#001220" stop-opacity="1"></stop><stop offset="80%" stop-color="#001220" stop-opacity="1"></stop></linearGradient></defs><g transform="translate(900, 0)"><path d="M0 486.7C-65.5 476.3 -130.9 465.8 -179.9 434.2C-228.8 402.7 -261.1 350 -308.3 308.3C-355.5 266.6 -417.5 235.8 -449.7 186.3C-481.9 136.7 -484.3 68.4 -486.7 0L0 0Z" fill="#FF0066"></path></g><g transform="translate(0, 600)"><path d="M0 -486.7C57.1 -463.6 114.2 -440.5 174.1 -420.4C234.1 -400.2 296.9 -383 344.2 -344.2C391.5 -305.4 423.2 -245 444.4 -184.1C465.6 -123.1 476.2 -61.6 486.7 0L0 0Z" fill="#FF0066"></path></g></svg>